#!OML:ASF H:\MichaelJackson\Top Level 1\Subject 1\Session 1\male.ASF
:FULLY-SPECIFIED
:DEGREES
975
root 4.98053 17.7692 6.96702 7.19304 12.025 -4.32226
lowerback 0.863069 3.23989 1.65244
upperback 3.38657 4.26972 1.78347
thorax 2.98119 2.15133 0.98451
lowerneck -9.0142 -6.94876 2.09428
upperneck 34.9388 -10.9275 1.43615
head 13.2013 -4.23757 -1.24927
rclavicle -6.95746e-015 2.76311e-014
rhumerus -23.8468 29.4955 -84.7334
rradius 136.769
rwrist -7.70708
rhand -47.7895 -58.2897
rfingers 7.12502
rthumb -20.4661 632.769
lclavicle -6.95746e-015 2.76311e-014
lhumerus -63.4556 -14.5375 96.5018
lradius 56.7617
lwrist 12.1999
lhand 4.25362 9.52095
lfingers 7.12502
lthumb 29.6578 37.1696
rfemur -21.3961 -1.70777 25.9973
rtibia 37.8691
rfoot -1.46393 5.56465
rtoes 24.3899
lfemur -39.6879 2.74493 -17.9445
ltibia 65.2658
lfoot 9.0895 -9.00015
ltoes 43.8381
976
root 4.96859 17.8006 7.00222 7.09617 12.0743 -4.49387
lowerback 0.915792 3.28277 1.71542
upperback 3.44894 4.32459 1.88046
thorax 3.01333 2.17938 1.04926
lowerneck -9.011 -6.98272 2.08053
upperneck 34.9078 -10.9837 1.47855
head 13.1916 -4.2589 -1.23716
rclavicle 3.42904e-014 2.18663e-014
rhumerus -23.8213 29.4785 -84.7525
rradius 136.732
rwrist -7.56164
rhand -47.7941 -58.2491
rfingers 7.12502
rthumb -20.4706 632.81
lclavicle 3.42904e-014 2.18663e-014
lhumerus -63.7927 -14.7307 96.525
lradius 57.1039
lwrist 12.5959
lhand 5.33027 9.73298
lfingers 7.12502
lthumb 30.6849 37.194
rfemur -20.5237 -1.80497 26.3641
rtibia 36.5619
rfoot -1.97559 4.69071
rtoes 25.2248
lfemur -40.7538 2.79337 -17.9306
ltibia 65.3008
lfoot 8.9817 -9.03985
ltoes 43.9345
977
root 4.95704 17.8233 7.03975 7.00578 12.0476 -4.53069
lowerback 0.96875 3.31821 1.66021
upperback 3.51592 4.37152 1.92979
thorax 3.04469 2.20092 1.13049
lowerneck -9.02299 -6.9846 2.06433
upperneck 34.9373 -10.9847 1.48151
head 13.2084 -4.25861 -1.23471
rclavicle 5.71506e-014 2.127e-014
rhumerus -23.7708 29.4972 -84.8331
rradius 136.654
rwrist -7.48715
rhand -47.7802 -58.2798
rfingers 7.12502
rthumb -20.4572 632.778
lclavicle 5.71506e-014 2.127e-014
lhumerus -64.0568 -14.8272 96.4672
lradius 57.3101
lwrist 12.9617
lhand 6.21489 9.91256
lfingers 7.12502
lthumb 31.5281 37.212
rfemur -19.6625 -1.87799 26.5861
rtibia 35.2997
rfoot -2.7963 3.71465
rtoes 25.3842
lfemur -41.5223 2.79447 -18.0468
ltibia 64.7554
lfoot 8.94019 -8.81221
ltoes 43.9315
978
root 4.94658 17.8365 7.07939 6.92349 11.9559 -4.49258
lowerback 1.01833 3.34619 1.55026
upperback 3.57531 4.40959 1.95056
thorax 3.06799 2.21683 1.21241
lowerneck -9.05013 -6.95792 2.04001
upperneck 35.0332 -10.9333 1.4411
head 13.2544 -4.23887 -1.243
rclavicle -1.06747e-013 1.39149e-014
rhumerus -23.7131 29.5522 -84.9643
rradius 136.547
rwrist -7.48823
rhand -47.7534 -58.3557
rfingers 7.12502
rthumb -20.4315 632.699
lclavicle -1.06747e-013 1.39149e-014
lhumerus -64.2531 -14.8203 96.3349
lradius 57.3798
lwrist 13.278
lhand 6.89679 10.0779
lfingers 7.12502
lthumb 32.1774 37.2481
rfemur -18.8418 -1.92667 26.7255
rtibia 34.082
rfoot -3.79194 2.63999
rtoes 24.7084
lfemur -42.022 2.74127 -18.2146
ltibia 63.6812
lfoot 9.17243 -8.30062
ltoes 43.9406
979
root 4.9377 17.8391 7.1212 6.85247 11.8195 -4.44334
lowerback 1.02849 3.37173 1.4495
upperback 3.62871 4.44351 1.96261
thorax 3.10857 2.2309 1.28264
lowerneck -9.08711 -6.91335 2.01292
upperneck 35.1754 -10.8455 1.36173
head 13.3199 -4.20655 -1.26258
rclavicle -1.06946e-013 1.23246e-014
rhumerus -23.6574 29.632 -85.1212
rradius 136.436
rwrist -7.54383
rhand -47.7235 -58.4614
rfingers 7.12502
rthumb -20.4027 632.59
lclavicle -1.06946e-013 1.23246e-014
lhumerus -64.3777 -14.7364 96.1456
lradius 57.3272
lwrist 13.5554
lhand 7.37928 10.2501
lfingers 7.12502
lthumb 32.6366 37.3262
rfemur -18.0912 -1.96544 26.8511
rtibia 32.9117
rfoot -4.75592 1.486
rtoes 23.2719
lfemur -42.3004 2.61487 -18.3462
ltibia 62.1754
lfoot 9.81235 -7.56546
ltoes 44.0184
980
root 4.93099 17.8297 7.16513 6.79677 11.6516 -4.43546
lowerback 0.984851 3.39809 1.41044
upperback 3.66583 4.47674 1.98174
thorax 3.16672 2.24606 1.32901
lowerneck -9.11821 -6.86044 1.97822
upperneck 35.342 -10.7367 1.25799
head 13.3937 -4.16841 -1.28783
rclavicle -4.4329e-014 5.96354e-015
rhumerus -23.6205 29.7291 -85.2814
rradius 136.337
rwrist -7.62677
rhand -47.6924 -58.5625
rfingers 7.12502
rthumb -20.3728 632.486
lclavicle -4.4329e-014 5.96354e-015
lhumerus -64.4545 -14.5967 95.9212
lradius 57.1834
lwrist 13.8132
lhand 7.66294 10.463
lfingers 7.12502
lthumb 32.9065 37.4829
rfemur -17.4402 -2.03544 27.0206
rtibia 31.8117
rfoot -5.54805 0.337887
rtoes 21.862
lfemur -42.4204 2.39063 -18.3654
ltibia 60.3839
lfoot 10.8438 -6.70921
ltoes 44.1116
981
root 4.92668 17.8083 7.21111 6.76428 11.467 -4.49993
lowerback 0.869018 3.426 1.46104
upperback 3.68155 4.50925 2.01734
thorax 3.24907 2.26301 1.34685
lowerneck -9.14009 -6.80663 1.93852
upperneck 35.5102 -10.6191 1.1376
head 13.4656 -4.12972 -1.31719
rclavicle 1.09332e-013 -1.35174e-014
rhumerus -23.609 29.8412 -85.4249
rradius 136.269
rwrist -7.70917
rhand -47.6657 -58.6467
rfingers 7.12502
rthumb -20.3471 632.399
lclavicle 1.09332e-013 -1.35174e-014
lhumerus -64.5038 -14.4243 95.682
lradius 56.9864
lwrist 14.0708
lhand 7.77203 10.7119
lfingers 7.12502
lthumb 33.0103 37.7099
rfemur -16.9067 -2.20013 27.2755
rtibia 30.8197
rfoot -6.17033 -0.682926
rtoes 20.7994
lfemur -42.4497 2.03666 -18.2154
ltibia 58.4951
lfoot 12.1297 -5.80591
ltoes 44.3059
982
root 4.9247 17.7735 7.25826 6.7635 11.2776 -4.64073
lowerback 0.681928 3.45512 1.60671
upperback 3.66572 4.54027 2.0677
thorax 3.34531 2.2816 1.33101
lowerneck -9.13751 -6.75656 1.88921
upperneck 35.6599 -10.5041 1.02293
head 13.5254 -4.09433 -1.34158
rclavicle -5.42682e-014 -1.82882e-014
rhumerus -23.6352 29.967 -85.5478
rradius 136.242
rwrist -7.76069
rhand -47.6542 -58.7039
rfingers 7.12502
rthumb -20.3361 632.341
lclavicle -5.42682e-014 -1.82882e-014
lhumerus -64.5635 -14.2495 95.4504
lradius 56.787
lwrist 14.341
lhand 7.73413 11.0412
lfingers 7.12502
lthumb 32.9742 38.0468
rfemur -16.5076 -2.50848 27.6252
rtibia 29.9827
rfoot -6.60979 -1.48001
rtoes 20.1602
lfemur -42.4393 1.54171 -17.8804
ltibia 56.727
lfoot 13.3625 -5.0385
ltoes 44.3123
983
root 4.92435 17.7253 7.30567 6.78778 11.0893 -4.84056
lowerback 0.438635 3.48327 1.82266
upperback 3.62166 4.56678 2.12981
thorax 3.44887 2.29977 1.29123
lowerneck -9.10625 -6.71044 1.83565
upperneck 35.772 -10.3936 0.917793
head 13.5635 -4.06279 -1.35991
rclavicle -2.85256e-014 -1.90833e-014
rhumerus -23.6908 30.1124 -85.6467
rradius 136.258
rwrist -7.7612
rhand -47.6572 -58.7332
rfingers 7.12502
rthumb -20.339 632.312
lclavicle -2.85256e-014 -1.90833e-014
lhumerus -64.6484 -14.0866 95.2447
lradius 56.6172
lwrist 14.6084
lhand 7.60074 11.452
lfingers 7.12502
lthumb 32.8473 38.4843
rfemur -16.2234 -2.93231 28.0499
rtibia 29.3408
rfoot -7.01211 -2.03465
rtoes 19.9825
lfemur -42.4207 0.90678 -17.3733
ltibia 55.2731
lfoot 14.3105 -4.49726
ltoes 43.8648
984
root 4.92485 17.6666 7.35247 6.81997 10.8987 -5.06618
lowerback 0.167478 3.51054 2.06745
upperback 3.55776 4.58967 2.19861
thorax 3.54964 2.31687 1.24367
lowerneck -9.0461 -6.66776 1.78035
upperneck 35.8371 -10.2873 0.822858
head 13.5753 -4.03493 -1.372
rclavicle 3.07122e-014 -3.97569e-014
rhumerus -23.7642 30.2804 -85.717
rradius 136.314
rwrist -7.70991
rhand -47.6874 -58.7422
rfingers 7.12502
rthumb -20.368 632.306
lclavicle 3.07122e-014 -3.97569e-014
lhumerus -64.7623 -13.9446 95.0813
lradius 56.4844
lwrist 14.8265
lhand 7.40605 11.8757
lfingers 7.12502
lthumb 32.6621 38.9466
rfemur -16.0203 -3.41656 28.5051
rtibia 28.9145
rfoot -7.48633 -2.36198
rtoes 20.2985
lfemur -42.405 0.181014 -16.7535
ltibia 54.2698
lfoot 14.7561 -4.19662
ltoes 42.8599
